<?xml version="1.0" encoding="UTF-8"?>
<svg id="Livello_1" xmlns="http://www.w3.org/2000/svg" version="1.1" viewBox="0 0 595.28 841.89">
  <!-- Generator: Adobe Illustrator 30.4.0, SVG Export Plug-In . SVG Version: 2.1.4 Build 226)  -->
  <defs>
    <style>
      .st0 {
        fill: #1d1d1b;
      }

      .st1 {
        fill: #fff;
      }
    </style>
  </defs>
  <path class="st0" d="M360.35,421.92l10.12-.97-10.12-.97c-9.4-.9-11.43-13.72-2.77-17.48l9.33-4.05-9.93,2.2c-9.22,2.05-15.11-9.52-8.04-15.77l7.62-6.74-8.76,5.17c-8.13,4.79-17.31-4.38-12.52-12.52l5.17-8.76-6.74,7.62c-6.25,7.07-17.82,1.18-15.77-8.04l2.2-9.93-4.05,9.33c-3.76,8.66-16.58,6.63-17.48-2.77l-.97-10.12-.97,10.12c-.9,9.4-13.72,11.43-17.48,2.77l-4.05-9.33,2.2,9.93c2.05,9.22-9.52,15.11-15.77,8.04l-6.74-7.62,5.17,8.76c4.79,8.13-4.38,17.31-12.52,12.52l-8.76-5.17,7.62,6.74c7.07,6.25,1.18,17.82-8.04,15.77l-9.93-2.2,9.33,4.05c8.66,3.76,6.63,16.58-2.77,17.48l-10.12.97,10.12.97c9.4.9,11.43,13.72,2.77,17.48l-9.33,4.05,9.93-2.2c9.22-2.05,15.11,9.52,8.04,15.77l-7.62,6.74,8.76-5.17c8.13-4.79,17.31,4.38,12.52,12.52l-5.17,8.76,6.74-7.62c6.25-7.07,17.82-1.18,15.77,8.04l-2.2,9.93,4.05-9.33c3.76-8.66,16.58-6.63,17.48,2.77l.97,10.12.97-10.12c.9-9.4,13.72-11.43,17.48-2.77l4.05,9.33-2.2-9.93c-2.05-9.22,9.52-15.11,15.77-8.04l6.74,7.62-5.17-8.76c-4.79-8.13,4.38-17.31,12.52-12.52l8.76,5.17-7.62-6.74c-7.07-6.25-1.18-17.82,8.04-15.77l9.93,2.2-9.33-4.05c-8.66-3.76-6.63-16.58,2.77-17.48ZM334.11,432.8c-6.25-1.39-10.24,6.45-5.45,10.69-5.51-3.25-11.73,2.97-8.48,8.48-4.24-4.79-12.08-.8-10.69,5.45h0c-2.55-5.87-11.24-4.49-11.85,1.88-.61-6.37-9.3-7.75-11.85-1.88,1.39-6.25-6.45-10.24-10.69-5.45,3.25-5.51-2.97-11.73-8.48-8.48,4.79-4.24.8-12.08-5.45-10.69,5.87-2.55,4.49-11.24-1.88-11.85,6.37-.61,7.75-9.3,1.88-11.85,6.25,1.39,10.24-6.45,5.45-10.69,5.51,3.25,11.73-2.97,8.48-8.48,4.24,4.79,12.08.8,10.69-5.45,2.55,5.87,11.24,4.49,11.85-1.88.61,6.37,9.3,7.75,11.85,1.88h0s0,0,0,0c-1.39,6.25,6.45,10.24,10.69,5.45-3.25,5.51,2.97,11.73,8.48,8.48-4.79,4.24-.8,12.08,5.45,10.69-5.87,2.55-4.49,11.24,1.88,11.85-6.37.61-7.75,9.3-1.88,11.85Z"/>
  <path class="st0" d="M-284.36,249.72l2.42,25.19c2.24,23.38,34.14,28.43,43.5,6.89l10.08-23.21-5.49,24.71c-5.09,22.93,23.68,37.59,39.24,19.99l16.76-18.96-12.85,21.8c-11.93,20.23,10.91,43.07,31.14,31.14l21.8-12.85-18.96,16.76c-17.6,15.56-2.93,44.33,19.99,39.24l24.71-5.49-23.21,10.08c-21.54,9.36-16.49,41.26,6.89,43.5l25.19,2.42-25.19,2.42c-23.38,2.24-28.43,34.14-6.89,43.5l23.21,10.08-24.71-5.49c-22.93-5.09-37.59,23.68-19.99,39.24l18.96,16.76-21.8-12.85c-20.23-11.93-43.07,10.91-31.14,31.14l12.85,21.8-16.76-18.96c-15.56-17.6-44.33-2.93-39.24,19.99l5.49,24.71-10.08-23.21c-9.36-21.54-41.26-16.49-43.5,6.89l-2.42,25.19-2.42-25.19c-2.24-23.38-34.14-28.43-43.5-6.89l-10.08,23.21,5.49-24.71c5.09-22.93-23.68-37.59-39.24-19.99l-16.76,18.96,12.85-21.8c11.93-20.23-10.91-43.07-31.14-31.14l-21.8,12.85,18.96-16.76c17.6-15.56,2.93-44.33-19.99-39.24l-24.71,5.49,23.21-10.08c21.54-9.36,16.49-41.26-6.89-43.5l-25.19-2.42,25.19-2.42c23.38-2.24,28.43-34.14,6.89-43.5l-23.21-10.08,24.71,5.49c22.93,5.09,37.59-23.68,19.99-39.24l-18.96-16.76,21.8,12.85c20.23,11.93,43.07-10.91,31.14-31.14l-12.85-21.8,16.76,18.96c15.56,17.6,44.33,2.93,39.24-19.99l-5.49-24.71,10.08,23.21c9.36,21.54,41.26,16.49,43.5-6.89l2.42-25.19Z"/>
  <path class="st1" d="M-284.36,335.52h0c1.52,15.85,23.14,19.28,29.49,4.67h0s0,0,0,0c-3.45,15.54,16.06,25.48,26.6,13.55h0s0,0,0,0c-8.09,13.72,7.4,29.2,21.11,21.11h0s0,0,0,0c-11.93,10.55-1.99,30.05,13.55,26.6h0s0,0,0,0c-14.6,6.34-11.18,27.97,4.67,29.49h0s0,0,0,0c-15.85,1.52-19.28,23.14-4.67,29.49h0s0,0,0,0c-15.54-3.45-25.48,16.06-13.55,26.6h0s0,0,0,0c-13.72-8.09-29.2,7.4-21.11,21.11h0s0,0,0,0c-10.55-11.93-30.05-1.99-26.6,13.55h0s0,0,0,0c-6.34-14.6-27.97-11.18-29.49,4.67h0s0,0,0,0c-1.52-15.85-23.14-19.28-29.49-4.67h0s0,0,0,0c3.45-15.54-16.06-25.48-26.6-13.55h0s0,0,0,0c8.09-13.72-7.4-29.2-21.11-21.11h0s0,0,0,0c11.93-10.55,1.99-30.05-13.55-26.6h0s0,0,0,0c14.6-6.34,11.18-27.97-4.67-29.49h0s0,0,0,0c15.85-1.52,19.28-23.14,4.67-29.49h0s0,0,0,0c15.54,3.45,25.48-16.06,13.55-26.6h0s0,0,0,0c13.72,8.09,29.2-7.4,21.11-21.11h0s0,0,0,0c10.55,11.93,30.05,1.99,26.6-13.55h0s0,0,0,0c6.34,14.6,27.97,11.18,29.49-4.67h0Z"/>
</svg>