<?xml version="1.0" encoding="UTF-8"?>
<svg id="Livello_1" xmlns="http://www.w3.org/2000/svg" version="1.1" viewBox="0 0 354.33 498.9">
  <!-- Generator: Adobe Illustrator 30.4.0, SVG Export Plug-In . SVG Version: 2.1.4 Build 226)  -->
  <defs>
    <style>
      .st0 {
        fill: #1d1d1b;
      }

      .st1 {
        fill: #fff;
      }
    </style>
  </defs>
  <path class="st0" d="M208.52,259.93l5.06-.49-5.06-.49c-4.7-.45-5.71-6.86-1.38-8.74l4.66-2.03-4.96,1.1c-4.61,1.02-7.55-4.76-4.02-7.89l3.81-3.37-4.38,2.58c-4.07,2.4-8.65-2.19-6.26-6.26l2.58-4.38-3.37,3.81c-3.13,3.54-8.91.59-7.89-4.02l1.1-4.96-2.03,4.66c-1.88,4.33-8.29,3.31-8.74-1.38l-.49-5.06-.49,5.06c-.45,4.7-6.86,5.71-8.74,1.38l-2.03-4.66,1.1,4.96c1.02,4.61-4.76,7.55-7.89,4.02l-3.37-3.81,2.58,4.38c2.4,4.07-2.19,8.65-6.26,6.26l-4.38-2.58,3.81,3.37c3.54,3.13.59,8.91-4.02,7.89l-4.96-1.1,4.66,2.03c4.33,1.88,3.31,8.29-1.38,8.74l-5.06.49,5.06.49c4.7.45,5.71,6.86,1.38,8.74l-4.66,2.03,4.96-1.1c4.61-1.02,7.55,4.76,4.02,7.89l-3.81,3.37,4.38-2.58c4.07-2.4,8.65,2.19,6.26,6.26l-2.58,4.38,3.37-3.81c3.13-3.54,8.91-.59,7.89,4.02l-1.1,4.96,2.03-4.66c1.88-4.33,8.29-3.31,8.74,1.38l.49,5.06.49-5.06c.45-4.7,6.86-5.71,8.74-1.38l2.03,4.66-1.1-4.96c-1.02-4.61,4.76-7.55,7.89-4.02l3.37,3.81-2.58-4.38c-2.4-4.07,2.19-8.65,6.26-6.26l4.38,2.58-3.81-3.37c-3.54-3.13-.59-8.91,4.02-7.89l4.96,1.1-4.66-2.03c-4.33-1.88-3.31-8.29,1.38-8.74ZM195.4,265.37c-3.12-.69-5.12,3.23-2.72,5.35-2.76-1.62-5.87,1.49-4.24,4.24-2.12-2.4-6.04-.4-5.35,2.72h0c-1.27-2.93-5.62-2.25-5.93.94-.31-3.19-4.65-3.87-5.93-.94.69-3.12-3.23-5.12-5.35-2.72,1.62-2.76-1.49-5.87-4.24-4.24,2.4-2.12.4-6.04-2.72-5.35,2.93-1.27,2.25-5.62-.94-5.93,3.19-.31,3.87-4.65.94-5.93,3.12.69,5.12-3.23,2.72-5.35,2.76,1.62,5.87-1.49,4.24-4.24,2.12,2.4,6.04.4,5.35-2.72,1.27,2.93,5.62,2.25,5.93-.94.31,3.19,4.65,3.87,5.93.94h0s0,0,0,0c-.69,3.12,3.23,5.12,5.35,2.72-1.62,2.76,1.49,5.87,4.24,4.24-2.4,2.12-.4,6.04,2.72,5.35-2.93,1.27-2.25,5.62.94,5.93-3.19.31-3.87,4.65-.94,5.93Z"/>
  <path class="st0" d="M-404.83,78.23l2.42,25.19c2.24,23.38,34.14,28.43,43.5,6.89l10.08-23.21-5.49,24.71c-5.09,22.93,23.68,37.59,39.24,19.99l16.76-18.96-12.85,21.8c-11.93,20.23,10.91,43.07,31.14,31.14l21.8-12.85-18.96,16.76c-17.6,15.56-2.93,44.33,19.99,39.24l24.71-5.49-23.21,10.08c-21.54,9.36-16.49,41.26,6.89,43.5l25.19,2.42-25.19,2.42c-23.38,2.24-28.43,34.14-6.89,43.5l23.21,10.08-24.71-5.49c-22.93-5.09-37.59,23.68-19.99,39.24l18.96,16.76-21.8-12.85c-20.23-11.93-43.07,10.91-31.14,31.14l12.85,21.8-16.76-18.96c-15.56-17.6-44.33-2.93-39.24,19.99l5.49,24.71-10.08-23.21c-9.36-21.54-41.26-16.49-43.5,6.89l-2.42,25.19-2.42-25.19c-2.24-23.38-34.14-28.43-43.5-6.89l-10.08,23.21,5.49-24.71c5.09-22.93-23.68-37.59-39.24-19.99l-16.76,18.96,12.85-21.8c11.93-20.23-10.91-43.07-31.14-31.14l-21.8,12.85,18.96-16.76c17.6-15.56,2.93-44.33-19.99-39.24l-24.71,5.49,23.21-10.08c21.54-9.36,16.49-41.26-6.89-43.5l-25.19-2.42,25.19-2.42c23.38-2.24,28.43-34.14,6.89-43.5l-23.21-10.08,24.71,5.49c22.93,5.09,37.59-23.68,19.99-39.24l-18.96-16.76,21.8,12.85c20.23,11.93,43.07-10.91,31.14-31.14l-12.85-21.8,16.76,18.96c15.56,17.6,44.33,2.93,39.24-19.99l-5.49-24.71,10.08,23.21c9.36,21.54,41.26,16.49,43.5-6.89l2.42-25.19Z"/>
  <path class="st1" d="M-404.83,164.02h0c1.52,15.85,23.14,19.28,29.49,4.67h0s0,0,0,0c-3.45,15.54,16.06,25.48,26.6,13.55h0s0,0,0,0c-8.09,13.72,7.4,29.2,21.11,21.11h0s0,0,0,0c-11.93,10.55-1.99,30.05,13.55,26.6h0s0,0,0,0c-14.6,6.34-11.18,27.97,4.67,29.49h0s0,0,0,0c-15.85,1.52-19.28,23.14-4.67,29.49h0s0,0,0,0c-15.54-3.45-25.48,16.06-13.55,26.6h0s0,0,0,0c-13.72-8.09-29.2,7.4-21.11,21.11h0s0,0,0,0c-10.55-11.93-30.05-1.99-26.6,13.55h0s0,0,0,0c-6.34-14.6-27.97-11.18-29.49,4.67h0s0,0,0,0c-1.52-15.85-23.14-19.28-29.49-4.67h0s0,0,0,0c3.45-15.54-16.06-25.48-26.6-13.55h0s0,0,0,0c8.09-13.72-7.4-29.2-21.11-21.11h0s0,0,0,0c11.93-10.55,1.99-30.05-13.55-26.6h0s0,0,0,0c14.6-6.34,11.18-27.97-4.67-29.49h0s0,0,0,0c15.85-1.52,19.28-23.14,4.67-29.49h0s0,0,0,0c15.54,3.45,25.48-16.06,13.55-26.6h0s0,0,0,0c13.72,8.09,29.2-7.4,21.11-21.11h0s0,0,0,0c10.55,11.93,30.05,1.99,26.6-13.55h0s0,0,0,0c6.34,14.6,27.97,11.18,29.49-4.67h0Z"/>
</svg>