<?xml version="1.0" encoding="UTF-8"?>
<svg xmlns="http://www.w3.org/2000/svg" version="1.1" viewBox="0 0 1179 2556">
  <!-- Generator: Adobe Illustrator 30.4.0, SVG Export Plug-In . SVG Version: 2.1.4 Build 226)  -->
  <defs>
    <style>
      .st0 {
        fill: #fff;
      }

      .st1 {
        fill: #f6ff07;
      }

      .st2 {
        fill: #d74200;
      }
    </style>
  </defs>
  <g id="testa">
    <g id="testa1" data-name="testa">
      <g>
        <path class="st2" d="M916.73,1654.03c2.25,38.78-7.6,59.46-20.8,70.16-21.49,17.4-53.84,8.14-63.82-17.63-.02-.04-.03-.08-.05-.12-20.75-54.07-60.81-180.42-13.43-249.94,0,0,92.09,94.09,98.1,197.53Z"/>
        <path class="st0" d="M694.2,973.59c27.62,26.2,50.74,57.07,68.53,91.09,29.34,56.11,65.56,145.36,61.46,238.49l-5.56,153.33c-47.38,69.52-7.32,195.87,13.43,249.94.02.04.03.08.05.12,0,0-35.1-36.84-67.84-29.39-2.19.5-4.36,1.19-6.51,2.11h0s24.17-24.59,20.83-141.37c-3.1-108.6-189.72-174.49-215.85-183.2-2.41-.8-4.43-2.45-5.68-4.66-2.87-5.05-5.97-14.98,2.65-27.69,12.68-18.68,4-137.47,4-200.2s-14.01-158.82-144.81-156.15c-93.05,1.9-120.58,91.96-128.72,143.77-3.5,22.28-9.57,44.06-17.96,64.99-21.82,54.35-8.31,94.33,2.46,114.24,5.55,10.26,10.11,21.04,13.35,32.25,26.73,92.38,137.2,84.46,189.11,75.21,8.94-1.59,15.43,8.33,10.34,15.85-61.98,91.62-30.54,191.66-30.54,191.66,0,0-.55-.49-1.63-1.38-12.81-10.47-99.89-76.58-224.65-46.32-2.01.48-3.95-1.02-3.95-3.09v-30.95c0-17.14-3.63-34.09-10.73-49.69-33.62-73.92-124.69-317.95,50.77-480.51,0,0,14.04-14.79,38.71-33.14,62.76-46.67,194.32-116.41,338.65-24.52,17.99,11.46,34.74,24.61,50.09,39.21Z"/>
        <path class="st2" d="M800.61,847.89c9.71,40.84-18.47,92.57-106.41,125.7-15.35-14.6-32.1-27.75-50.09-39.21-144.33-91.89-275.89-22.15-338.65,24.52-112.12-79.64-81.71-129.31-72.08-146.38,9.98-17.67,33.67-11.14,48.05-33.36,21.86-33.79-18.1-71.74,2.67-108.78,12.41-22.13,41.12-34.32,64.07-34.03,38.8.5,55.55,36.65,74.74,28.69,22.84-9.46,7.63-64.21,33.36-76.07,16.3-7.52,41.8,5.52,55.39,20.02,17.42,18.58,14.51,38.72,25.36,40.71,12.22,2.24,18.64-22.84,42.71-36.04,21.66-11.88,48.79-9.31,66.06-2.67,60.11,23.1,84.01,127.28,66.07,164.83-1.43,2.99-6.57,12.76-2.67,18.02,5.42,7.32,22.34-2.22,39.37,0,26.8,3.49,47.59,35.28,52.05,54.05Z"/>
        <path class="st2" d="M778.59,1537.91c3.34,116.78-20.83,141.36-20.83,141.36h0c-3.13,1.33-6.2,3.12-9.2,5.45-36.03,28.03-232.23,84.09-291.62-80.74,0,0-31.44-100.04,30.54-191.66,5.09-7.52-1.4-17.44-10.34-15.85-51.91,9.25-162.38,17.17-189.11-75.21-3.24-11.21-7.8-21.99-13.35-32.25-10.77-19.91-24.28-59.89-2.46-114.24,8.39-20.93,14.46-42.71,17.96-64.99,8.14-51.81,35.67-141.87,128.72-143.77,130.8-2.67,144.81,93.43,144.81,156.15s8.68,181.52-4,200.2c-8.62,12.71-5.52,22.64-2.65,27.69,1.25,2.21,3.27,3.86,5.68,4.66,26.13,8.71,212.75,74.6,215.85,183.2Z"/>
      </g>
    </g>
  </g>
  <g id="becco_nuovo">
    <path class="st1" d="M899.96,1258.23c38.68-.75,72.24-.96,101.87-2.3,0,0-9.35,26.44-181.49,121.98,0,0-141.55-23.45-180.05-108.47,0,0,120.71-176.18,58.53-288.84,32.7-.61,151.29-83.14,227.17-65.52,39.57,9.19,105.08,40.36,126.93,63.63,0,0-222.12,114.12-373.95,267.22,0,0,104.65,14.56,220.98,12.3Z"/>
  </g>
  <g id="occhio">
    <circle class="st0" cx="439.92" cy="1131.84" r="97.76"/>
    <circle cx="387.6" cy="1086.86" r="26.14"/>
  </g>
</svg>